<svg width="526" height="472" viewBox="0 0 526 472" fill="none" xmlns="http://www.w3.org/2000/svg">
<path d="M420.598 267.645L375.088 261.603L375.45 266.103L336.536 271.275C336.536 271.275 311.45 334.019 333.557 472H365.214L376.609 332.079H380.649L391.684 472H423.341C445.434 334.019 420.598 267.645 420.598 267.645Z" fill="#8E716C"/>
<path d="M362.122 332.079H395.15" stroke="#282828" stroke-width="1.2333" stroke-miterlimit="10" stroke-linecap="round" stroke-linejoin="round"/>
<path d="M446.572 201.98C442.715 195.842 421.035 196.052 419.886 195.916C414.027 195.226 423.643 241.737 435.843 282.395C438.179 290.183 446.782 294.25 454.297 291.071C454.383 291.034 454.457 290.997 454.544 290.972C460.489 288.458 463.864 282.173 462.677 275.85C456.868 245.163 451.034 209.078 446.572 201.98Z" fill="#FFB1A5"/>
<path d="M451.738 218.79L424.063 229.5L421.468 216.412L450.131 209.276L451.738 218.79Z" fill="#F3978E"/>
<path d="M456.967 244.991C456.967 244.991 443.853 262.553 444.483 261.739C445.113 260.926 454.767 233.357 454.767 233.357L456.967 244.991Z" fill="#F3978E"/>
<path d="M475.717 221.39L438.129 269.947C433.198 276.319 434.767 285.537 441.541 289.924C448.302 294.3 457.374 291.995 461.218 284.933L492.502 227.38L475.717 221.39Z" fill="#FFB1A5"/>
<path d="M485.445 233.862C477.299 231.237 472.825 222.524 475.458 214.402C478.09 206.281 486.829 201.82 494.974 204.445C503.12 207.07 507.594 215.783 504.961 223.904C502.341 232.026 493.602 236.487 485.445 233.862Z" fill="#FFB1A5"/>
<path d="M501.525 209.855C501.525 209.855 505.765 205.467 498.237 202.386C490.71 199.305 481.403 200.008 475.458 214.402L501.525 209.855Z" fill="#FFB1A5"/>
<path d="M509.324 179.168L525.059 185.971C525.936 186.353 526.258 187.388 525.776 188.288L505.072 226.85C504.59 227.749 503.49 228.168 502.613 227.786L486.878 220.983C486 220.601 485.679 219.566 486.161 218.666L506.864 180.104C507.347 179.205 508.447 178.786 509.324 179.168Z" fill="#372F5F"/>
<path d="M507.816 178.478L523.551 185.28C524.428 185.662 524.75 186.698 524.268 187.597L503.564 226.159C503.082 227.059 501.982 227.478 501.105 227.096L485.37 220.293C484.493 219.911 484.171 218.876 484.653 217.976L505.357 179.414C505.839 178.527 506.939 178.095 507.816 178.478Z" fill="#261B43"/>
<path d="M506.036 182.409L519.867 188.386L502.996 219.813L489.165 213.836L506.036 182.409Z" fill="#E6E6E6"/>
<path d="M519.867 188.386L489.165 213.836L506.036 182.409L519.867 188.386Z" fill="white"/>
<path d="M493.713 201.104C493.713 201.104 497.224 201.782 500.375 203.569C501.772 204.358 502.477 205.96 502.094 207.513C501.735 208.93 500.549 209.978 499.102 210.163L490.92 211.186C490.92 211.186 486.656 218.518 481.069 219.344L486.186 206.465L493.713 201.104Z" fill="#FFB1A5"/>
<path d="M389.22 140.827C388.318 140.827 447.251 148.961 456.967 215.943L426.387 220.613L420.22 271.192H334.91L317.976 177.75C317.976 177.75 336.875 150.748 371.965 140.827H389.22Z" fill="#56DFED"/>
<path d="M426.387 220.613L429.045 191.368" stroke="#282828" stroke-width="1.2333" stroke-miterlimit="10" stroke-linecap="round" stroke-linejoin="round"/>
<path d="M394.82 141.776V118.508H367.466V142.047C366.07 142.466 363.734 143.304 360.125 145.017L381.458 157.686L403.262 145.017C403.262 145.017 399.801 143.02 394.82 141.776Z" fill="#FFB1A5"/>
<path d="M367.219 121.355C367.219 121.355 372.126 134.357 385.24 133.235C397.292 132.2 395.376 114.182 395.376 114.182L367.219 121.355Z" fill="#282828"/>
<path d="M355.292 104.064C351.003 107.946 341.423 93.231 345.564 89.1024C349.705 84.9738 352.869 91.4563 352.869 91.4563L354.723 95.8437L356.12 101.784L356.453 103.337L355.292 104.064Z" fill="#F3978E"/>
<path d="M347.566 94.3155C347.566 94.3155 350.817 92.8613 353.697 97.5444" stroke="#282828" stroke-width="0.9928" stroke-miterlimit="10" stroke-linecap="round" stroke-linejoin="round"/>
<path d="M405.981 103.608C409.924 107.835 420.726 93.9829 416.944 89.5216C413.162 85.0602 409.466 91.2469 409.466 91.2469L407.254 95.4618L405.363 101.266L404.905 102.795L405.981 103.608Z" fill="#F3978E"/>
<path d="M414.509 94.55C414.509 94.55 411.394 92.8246 408.131 97.2613" stroke="#282828" stroke-width="0.9928" stroke-miterlimit="10" stroke-linecap="round" stroke-linejoin="round"/>
<path d="M347.776 75.0778C347.776 94.5376 362.658 103.768 381.025 103.768C399.393 103.768 414.274 94.5376 414.274 75.0778C414.274 55.6181 399.393 42.3696 381.025 42.3696C362.658 42.3696 347.776 55.6057 347.776 75.0778Z" fill="#282828"/>
<path d="M352.288 76.4335C352.288 88.3879 353.981 98.6908 355.675 106.011C357.331 113.172 361.991 118.188 368.566 122.218L369.765 122.957C376.724 127.221 385.722 127.32 392.792 123.216C399.924 119.075 404.918 113.603 406.45 105.913C409.244 91.9249 409.553 76.4458 409.553 76.4458C409.553 76.4458 412.21 46.2764 381.334 46.868C350.446 47.4349 352.288 76.4335 352.288 76.4335Z" fill="#FFB1A5"/>
<path d="M379.048 93.6499V97.8278C379.048 98.0743 379.097 98.3084 379.184 98.5303C379.53 99.3806 380.519 99.7873 381.409 99.5532L383.324 99.0479" stroke="#282828" stroke-width="1.2316" stroke-miterlimit="10" stroke-linecap="round" stroke-linejoin="round"/>
<path d="M374.141 77.4563L358.79 81.0426C358.79 81.0426 359.482 77.1482 365.761 75.7309C372.052 74.3137 374.141 77.4563 374.141 77.4563Z" fill="#282828"/>
<path d="M387.762 77.4563L402.582 81.0426C402.582 81.0426 401.914 77.1482 395.845 75.7309C389.776 74.3137 387.762 77.4563 387.762 77.4563Z" fill="#282828"/>
<path d="M368.307 91.2716C369.734 91.2716 370.89 90.1184 370.89 88.6959C370.89 87.2733 369.734 86.1201 368.307 86.1201C366.88 86.1201 365.724 87.2733 365.724 88.6959C365.724 90.1184 366.88 91.2716 368.307 91.2716Z" fill="#282828"/>
<path d="M395.438 88.6959C395.438 90.1131 394.276 91.2716 392.854 91.2716C391.42 91.2716 390.271 90.1254 390.271 88.6959C390.271 87.2786 391.433 86.1201 392.854 86.1201C394.276 86.1201 395.438 87.2786 395.438 88.6959Z" fill="#282828"/>
<path d="M370.902 104.409H390.864C390.852 104.409 382.014 115.131 370.902 104.409Z" fill="white"/>
<path d="M374.989 97.4536C379.285 93.1701 379.285 86.2254 374.989 81.942C370.693 77.6586 363.728 77.6586 359.432 81.942C355.136 86.2254 355.136 93.1701 359.432 97.4536C363.728 101.737 370.693 101.737 374.989 97.4536Z" stroke="#C98BD2" stroke-width="1.3423" stroke-miterlimit="10"/>
<path d="M402.031 97.4501C406.327 93.1667 406.327 86.2219 402.031 81.9385C397.735 77.6551 390.77 77.6551 386.474 81.9385C382.178 86.2219 382.178 93.1667 386.474 97.4501C390.77 101.734 397.735 101.734 402.031 97.4501Z" stroke="#C98BD2" stroke-width="1.3423" stroke-miterlimit="10"/>
<path d="M378.232 89.6943C378.232 89.6943 380.84 87.2653 383.263 89.6943" stroke="#C98BD2" stroke-width="1.3423" stroke-miterlimit="10"/>
<path d="M356.218 89.694L352.745 89.6074" stroke="#C98BD2" stroke-width="1.3423" stroke-miterlimit="10"/>
<path d="M405.264 89.694L408.749 89.6074" stroke="#C98BD2" stroke-width="1.3423" stroke-miterlimit="10"/>
<path d="M409.157 86.4282C409.157 86.4282 396.809 69.7906 399.652 52.9189C399.652 52.9189 408.811 57.5158 411.209 69.384C413.594 81.2644 409.157 86.4282 409.157 86.4282Z" fill="#282828"/>
<path d="M352.276 87.5619C352.276 87.5619 366.613 68.6567 363.771 51.7974C363.771 51.7974 353.821 57.5281 351.435 69.3962C349.05 81.2643 352.276 87.5619 352.276 87.5619Z" fill="#282828"/>
<path d="M408.119 59.5615C408.119 59.5615 392.261 76.8645 348.889 73.9068C348.889 73.9068 355.526 48.5068 376.551 45.8078C376.551 45.8078 400.826 42.924 408.119 59.5615Z" fill="#282828"/>
<path d="M427.485 42.654C429.309 31.3925 421.631 20.7892 410.337 18.9708C399.042 17.1524 388.408 24.8076 386.584 36.0691C384.761 47.3307 392.438 57.934 403.733 59.7524C415.027 61.5708 425.662 53.9155 427.485 42.654Z" fill="#282828"/>
<path d="M174.82 337.027L174.894 472H241.182L246.275 337.027H174.82Z" fill="#005683"/>
<path d="M318.742 337.027L318.668 472H252.38L247.288 337.027H318.742Z" fill="#005683"/>
<path d="M282.539 337.027H214.002V383.914H282.539V337.027Z" fill="#005683"/>
<path d="M223.581 383.439H270.846" stroke="#282828" stroke-width="1.3968" stroke-miterlimit="10" stroke-linecap="round" stroke-linejoin="round"/>
<path d="M360.619 248.096C364.735 293.362 360.397 326.354 361.596 409.652L322.031 411.304L316.135 255.379L360.619 248.096Z" fill="#FFB1A5"/>
<path d="M321.017 283.417C321.017 283.417 345.515 281.186 362.263 270.168L361.818 260.469L320.992 266.015L321.017 283.417Z" fill="#F3978E"/>
<path d="M281.711 143.858C281.711 143.858 359.531 163.367 373.634 261.862C373.634 261.862 335.552 278.327 297.384 271.24L305.974 238.298L281.711 143.858Z" fill="#C98BD2"/>
<path d="M49.2654 184.812L107.21 253.038L89.4731 302.828C89.4731 302.828 45.4337 241.774 25.645 194.585L49.2654 184.812Z" fill="#FFB1A5"/>
<path d="M51.1689 187.276C51.1689 187.276 30.824 198.738 25.6451 194.597C16.5974 187.35 9.13184 160.829 9.13184 160.829C9.13184 160.829 47.1765 146.533 46.8181 147.088C46.4597 147.642 51.1689 187.276 51.1689 187.276Z" fill="#FFB1A5"/>
<path d="M51.1688 187.277C50.8104 185.231 58.7085 163.208 61.4278 154.938C62.0829 152.942 60.6985 150.76 58.5355 150.341C57.1264 150.07 54.8892 150.243 53.8263 152.264L44.2842 168.532L51.1688 187.277Z" fill="#FFB1A5"/>
<path d="M50.4643 163.454L43.9134 130.956C43.5302 128.799 41.3425 127.308 39.1671 127.714C37.2883 128.072 36.0399 129.736 36.2624 131.621L39.1176 155.826L50.4643 163.454Z" fill="#FFB1A5"/>
<path d="M37.4366 151.475L28.5373 128.269C27.7957 126.235 25.5091 125.114 23.482 125.792C21.7268 126.383 20.738 128.146 21.1583 129.957L27.7586 156.774L37.4366 151.475Z" fill="#FFB1A5"/>
<path d="M27.8825 158.315L16.6223 135.515C15.5841 133.395 13.0131 132.422 10.9119 133.334C8.93427 134.196 8.05669 136.427 8.89718 138.473L17.8707 160.003L27.8825 158.315Z" fill="#FFB1A5"/>
<path d="M9.13181 160.829L0.294278 146.854C-0.434974 145.215 0.232477 143.366 1.8393 142.639C3.37197 141.936 5.26307 142.491 6.25189 143.92L17.8705 159.991L9.13181 160.829Z" fill="#FFB1A5"/>
<path d="M48.6843 161.014C48.6843 161.014 35.4218 159.621 34.0498 177.257" stroke="#282828" stroke-width="1.5317" stroke-miterlimit="10" stroke-linecap="round" stroke-linejoin="round"/>
<path d="M77.7188 279.547C77.7188 279.547 88.6204 317.148 110.337 312.157C132.054 307.153 165.896 260.913 165.896 260.913L158.32 181.953L97.3715 256.735L77.7188 279.547Z" fill="#FFB1A5"/>
<path d="M116.27 233.504C116.27 233.504 136.85 264.45 154.401 275.369L165.896 260.913L121.573 226.726L116.27 233.504Z" fill="#F3978E"/>
<path d="M206.314 142.158C206.314 142.158 145.898 155.739 113.699 225.753C113.699 225.753 133.154 254.973 164.339 267.963L185.215 242.464L206.314 142.158Z" fill="#C98BD2"/>
<path d="M206.314 141.936C182.718 154.001 167.874 170.01 167.874 170.01L172.533 374.664H321.264L320.782 171.07C320.782 171.07 302.031 152.781 281.711 143.859C264.444 136.292 223.087 133.358 206.314 141.936Z" fill="#C98BD2"/>
<path d="M276.681 241.662C265.26 241.662 255.99 232.432 255.99 221.032V200.401H297.359V221.032C297.372 232.432 288.114 241.662 276.681 241.662Z" stroke="#282828" stroke-width="1.3968" stroke-miterlimit="10" stroke-linecap="round" stroke-linejoin="round"/>
<path d="M321.017 272.005L322.945 205.06" stroke="#282828" stroke-width="1.3968" stroke-miterlimit="10" stroke-linecap="round" stroke-linejoin="round"/>
<path d="M170.16 260.852L166.947 202.817" stroke="#282828" stroke-width="1.3968" stroke-miterlimit="10" stroke-linecap="round" stroke-linejoin="round"/>
<path d="M208.057 67.1907L201.852 36.6145C201.506 34.1251 200.529 30.28 201.716 26.669C203.681 20.6918 210.9 9.21806 223.235 14.4681L225.905 26.5704C225.905 26.5704 213.1 29.1461 207.958 45.8576L208.057 67.1907Z" fill="#282828"/>
<path d="M222.333 20.7778C222.11 24.7955 218.55 42.382 206.042 48.7782C206.042 48.7782 195.091 25.3624 222.333 20.7778Z" fill="#282828"/>
<path d="M266.199 136.304V84.3701H218.192V136.304L203.904 142.799C203.904 142.799 207.253 164.317 242.702 164.797C278.152 165.278 281.711 143.859 281.711 143.859L266.199 136.304Z" fill="#FFB1A5"/>
<path d="M223.235 14.4678C223.235 14.4678 232.048 -8.71383 259.215 3.61028C275.667 11.0664 280.265 21.0612 282.23 28.1476C282.885 30.5015 283.145 34.211 282.959 36.417L276.384 67.1903L250.724 24.6105L225.892 26.5701L223.235 14.4678Z" fill="#282828"/>
<path d="M276.396 67.1902C276.396 67.1902 279.634 62.051 286.309 64.5775C292.983 67.1039 289.968 83.2731 279.956 85.3312C279.956 85.3312 276.371 86.1077 273.553 83.6552C273.541 83.6675 276.001 71.7254 276.396 67.1902Z" fill="#F3978E"/>
<path d="M284.986 70.2837C284.986 70.2837 279.399 68.4227 275.419 76.6306" stroke="#282828" stroke-width="1.3968" stroke-miterlimit="10" stroke-linecap="round" stroke-linejoin="round"/>
<path d="M208.057 67.1902C208.057 67.1902 204.818 62.051 198.144 64.5775C191.469 67.1039 194.485 83.2731 204.497 85.3312C204.497 85.3312 208.082 86.1077 210.9 83.6552C210.9 83.6675 208.44 71.7254 208.057 67.1902Z" fill="#F3978E"/>
<path d="M199.466 70.2837C199.466 70.2837 205.053 68.4227 209.033 76.6306" stroke="#282828" stroke-width="1.3968" stroke-miterlimit="10" stroke-linecap="round" stroke-linejoin="round"/>
<path d="M277.064 51.8472C277.064 61.5955 276.112 81.9796 270.093 94.0819C264.456 105.445 255.124 111.557 242.888 111.927C230.651 112.297 221.542 107.589 214.237 92.8371C206.932 78.0852 207.278 52.0197 207.278 52.0197C207.278 52.0197 207.278 17.2041 241.788 17.2041C278.139 17.2164 277.064 51.8472 277.064 51.8472Z" fill="#FFB1A5"/>
<path d="M218.551 100.108C218.551 100.108 222.568 120.455 240.329 122.784C260.761 125.471 266.199 100.626 266.199 100.626C266.199 100.626 257.176 111.902 242.888 111.927C226.968 111.951 218.551 100.108 218.551 100.108Z" fill="#282828"/>
<path d="M239.711 66.3032V74.3632C239.711 74.7083 239.773 75.041 239.896 75.3491C240.378 76.5446 241.75 77.1115 242.999 76.7787L245.681 76.0639" stroke="#282828" stroke-width="1.3968" stroke-miterlimit="10" stroke-linecap="round" stroke-linejoin="round"/>
<path d="M229.514 62.458C229.514 64.1833 228.105 65.5883 226.374 65.5883C224.644 65.5883 223.235 64.1833 223.235 62.458C223.235 60.7326 224.644 59.3276 226.374 59.3276C228.117 59.3276 229.514 60.7203 229.514 62.458Z" fill="#282828"/>
<path d="M258.968 62.458C258.968 64.1833 257.559 65.5883 255.829 65.5883C254.099 65.5883 252.689 64.1833 252.689 62.458C252.689 60.7326 254.099 59.3276 255.829 59.3276C257.572 59.3276 258.968 60.7203 258.968 62.458Z" fill="#282828"/>
<path d="M247.794 46.8681L268.918 52.3031C268.918 52.3031 267.954 46.3998 259.314 44.2431C250.674 42.111 247.794 46.8681 247.794 46.8681Z" fill="#282828"/>
<path d="M234.668 46.8681L213.544 52.3031C213.544 52.3031 214.509 46.3998 223.148 44.2431C231.788 42.111 234.668 46.8681 234.668 46.8681Z" fill="#282828"/>
<path d="M230.466 82.4722C230.466 82.4722 233.581 84.8507 241.775 84.8507C249.229 84.8507 253.876 82.4722 253.876 82.4722" stroke="#282828" stroke-width="1.3968" stroke-miterlimit="10" stroke-linecap="round" stroke-linejoin="round"/>
<path d="M225.534 76.6801C232.907 76.6801 238.883 70.721 238.883 63.3701C238.883 56.0192 232.907 50.0601 225.534 50.0601C218.162 50.0601 212.185 56.0192 212.185 63.3701C212.185 70.721 218.162 76.6801 225.534 76.6801Z" stroke="white" stroke-width="1.9514" stroke-miterlimit="10"/>
<path d="M258.326 76.6801C265.698 76.6801 271.675 70.721 271.675 63.3701C271.675 56.0192 265.698 50.0601 258.326 50.0601C250.953 50.0601 244.977 56.0192 244.977 63.3701C244.977 70.721 250.953 76.6801 258.326 76.6801Z" stroke="white" stroke-width="1.9514" stroke-miterlimit="10"/>
<path d="M238.883 63.3708C238.883 63.3708 242.047 60.4239 244.976 63.3708" stroke="white" stroke-width="1.9514" stroke-miterlimit="10"/>
<path d="M212.185 63.3705L207.71 63.2593" stroke="white" stroke-width="1.9514" stroke-miterlimit="10"/>
<path d="M271.674 63.3702L276.668 63.2837" stroke="white" stroke-width="1.9514" stroke-miterlimit="10"/>
<path d="M218.551 21.5665C218.551 21.5665 224.966 39.7322 253.889 39.1653C273.541 38.7832 278.238 52.9683 278.238 52.9683C278.238 52.9683 274.814 21.2584 273.912 21.5665C273.01 21.8622 244 13.8516 244 13.8516L218.551 21.5665Z" fill="#282828"/>
</svg>
