<svg width="27" height="27" viewBox="0 0 27 27" fill="none" xmlns="http://www.w3.org/2000/svg">
<path d="M18.8264 2.21484H7.75203C4.69393 2.21484 2.21484 4.69393 2.21484 7.75203V18.8264C2.21484 21.8845 4.69393 24.3636 7.75203 24.3636H18.8264C21.8845 24.3636 24.3636 21.8845 24.3636 18.8264V7.75203C24.3636 4.69393 21.8845 2.21484 18.8264 2.21484Z" stroke="#6B21A8" stroke-width="2" stroke-linecap="round" stroke-linejoin="round"/>
<path d="M17.7188 12.5915C17.8555 13.5132 17.6981 14.4545 17.2689 15.2815C16.8398 16.1085 16.1608 16.7792 15.3286 17.1981C14.4963 17.617 13.5531 17.7628 12.6332 17.6148C11.7133 17.4667 10.8635 17.0324 10.2047 16.3736C9.54584 15.7147 9.11152 14.8649 8.96349 13.945C8.81547 13.0251 8.96127 12.082 9.38017 11.2497C9.79907 10.4174 10.4697 9.73846 11.2968 9.30933C12.1238 8.8802 13.0651 8.72277 13.9868 8.85944C14.9269 8.99885 15.7973 9.43693 16.4693 10.109C17.1413 10.781 17.5794 11.6514 17.7188 12.5915Z" stroke="#6B21A8" stroke-width="2" stroke-linecap="round" stroke-linejoin="round"/>
<path d="M19.3804 7.19824H19.3912" stroke="#6B21A8" stroke-width="2" stroke-linecap="round" stroke-linejoin="round"/>
</svg>
