<?xml version="1.0" encoding="utf-8"?>
<svg xmlns="http://www.w3.org/2000/svg" viewBox="0 0 26 26" width="208" height="208">
  <path d="M13 3L1.8125 8.59375C1.3125 8.792969 1 9.304688 1 9.90625L1 12.59375C1 13.695313 2.1875 14.40625 3.1875 13.90625L13 9L22.8125 13.90625C23.8125 14.40625 25 13.699219 25 12.5L25 9.90625C25 9.40625 24.6875 8.792969 24.1875 8.59375 Z M 13 11L1.8125 16.6875C1.3125 16.886719 1 17.398438 1 18L1 20.59375C1 21.695313 2.1875 22.40625 3.1875 21.90625L13 17L22.8125 21.90625C23.8125 22.40625 25 21.699219 25 20.5L25 17.90625C25 17.40625 24.6875 16.894531 24.1875 16.59375Z" fill="#FFFFFF" />
</svg>