<svg width="22" height="22" viewBox="0 0 22 22" fill="none" xmlns="http://www.w3.org/2000/svg">
<path d="M15 3.83301H16.8333C17.3196 3.83301 17.7859 4.02616 18.1297 4.36998C18.4735 4.7138 18.6667 5.18011 18.6667 5.66634V18.4997C18.6667 18.9859 18.4735 19.4522 18.1297 19.796C17.7859 20.1399 17.3196 20.333 16.8333 20.333H5.83333C5.3471 20.333 4.88079 20.1399 4.53697 19.796C4.19315 19.4522 4 18.9859 4 18.4997V5.66634C4 5.18011 4.19315 4.7138 4.53697 4.36998C4.88079 4.02616 5.3471 3.83301 5.83333 3.83301H7.66667" stroke="white" stroke-linecap="round" stroke-linejoin="round"/>
<path d="M14.0837 2H8.58366C8.0774 2 7.66699 2.41041 7.66699 2.91667V4.75C7.66699 5.25626 8.0774 5.66667 8.58366 5.66667H14.0837C14.5899 5.66667 15.0003 5.25626 15.0003 4.75V2.91667C15.0003 2.41041 14.5899 2 14.0837 2Z" stroke="white" stroke-linecap="round" stroke-linejoin="round"/>
</svg>
