<svg width="27" height="27" viewBox="0 0 27 27" fill="none" xmlns="http://www.w3.org/2000/svg">
<path d="M17.7188 8.85962C19.4811 8.85962 21.1712 9.55968 22.4173 10.8058C23.6634 12.0519 24.3635 13.742 24.3635 15.5042V23.2563H19.9337V15.5042C19.9337 14.9168 19.7004 14.3535 19.285 13.9381C18.8696 13.5227 18.3063 13.2894 17.7188 13.2894C17.1314 13.2894 16.5681 13.5227 16.1527 13.9381C15.7373 14.3535 15.504 14.9168 15.504 15.5042V23.2563H11.0742V15.5042C11.0742 13.742 11.7743 12.0519 13.0204 10.8058C14.2665 9.55968 15.9566 8.85962 17.7188 8.85962V8.85962Z" stroke="#6B21A8" stroke-width="2" stroke-linecap="round" stroke-linejoin="round"/>
<path d="M6.6446 9.96704H2.21484V23.2563H6.6446V9.96704Z" stroke="#6B21A8" stroke-width="2" stroke-linecap="round" stroke-linejoin="round"/>
<path d="M4.42972 6.6446C5.65296 6.6446 6.6446 5.65296 6.6446 4.42972C6.6446 3.20648 5.65296 2.21484 4.42972 2.21484C3.20648 2.21484 2.21484 3.20648 2.21484 4.42972C2.21484 5.65296 3.20648 6.6446 4.42972 6.6446Z" stroke="#6B21A8" stroke-width="2" stroke-linecap="round" stroke-linejoin="round"/>
</svg>
