<svg width="37" height="37" viewBox="0 0 37 37" fill="none" xmlns="http://www.w3.org/2000/svg">
<path d="M32.375 15.4165C32.375 26.2082 18.5 35.4582 18.5 35.4582C18.5 35.4582 4.625 26.2082 4.625 15.4165C4.625 11.7366 6.08683 8.20746 8.68889 5.6054C11.291 3.00333 14.8201 1.5415 18.5 1.5415C22.1799 1.5415 25.709 3.00333 28.3111 5.6054C30.9132 8.20746 32.375 11.7366 32.375 15.4165Z" stroke="white" stroke-width="2" stroke-linecap="round" stroke-linejoin="round"/>
<path d="M18.5 20.0415C21.0543 20.0415 23.125 17.9708 23.125 15.4165C23.125 12.8622 21.0543 10.7915 18.5 10.7915C15.9457 10.7915 13.875 12.8622 13.875 15.4165C13.875 17.9708 15.9457 20.0415 18.5 20.0415Z" stroke="white" stroke-width="2" stroke-linecap="round" stroke-linejoin="round"/>
</svg>
