<svg width="26" height="26" viewBox="0 0 26 26" fill="none" xmlns="http://www.w3.org/2000/svg">
<path d="M24.9168 3.24991C23.8794 3.98167 22.7308 4.54136 21.5152 4.90741C20.8627 4.15721 19.9956 3.62549 19.0311 3.38416C18.0666 3.14283 17.0513 3.20354 16.1224 3.55807C15.1936 3.91259 14.396 4.54384 13.8376 5.36643C13.2791 6.18903 12.9868 7.16327 13.0002 8.15741V9.24074C11.0963 9.29011 9.20988 8.86787 7.50876 8.01164C5.80764 7.15541 4.34467 5.89176 3.25016 4.33324C3.25016 4.33324 -1.08317 14.0832 8.66683 18.4166C6.43573 19.931 3.77792 20.6904 1.0835 20.5832C10.8335 25.9999 22.7502 20.5832 22.7502 8.12491C22.7492 7.82315 22.7202 7.52213 22.6635 7.22574C23.7692 6.13536 24.5494 4.75868 24.9168 3.24991V3.24991Z" stroke="#6B21A8" stroke-width="2" stroke-linecap="round" stroke-linejoin="round"/>
</svg>
